HIERARCHY
ROOT Hips
{
	OFFSET 0.000000 0.000000 0.000000
	CHANNELS 6 Xposition Yposition Zposition Zrotation Yrotation Xrotation 
	JOINT LHipJoint
	{
		OFFSET 0.000000 0.000000 0.000000
		CHANNELS 3 Zrotation Yrotation Xrotation
		JOINT LeftUpLeg
		{
			OFFSET 1.363060 -1.794630 0.839290
			CHANNELS 3 Zrotation Yrotation Xrotation
			JOINT LeftLeg
			{
				OFFSET 2.448110 -6.726130 0.000000
				CHANNELS 3 Zrotation Yrotation Xrotation
				JOINT LeftFoot
				{
					OFFSET 2.562200 -7.039590 0.000000
					CHANNELS 3 Zrotation Yrotation Xrotation
					JOINT LeftToeBase
					{
						OFFSET 0.157640 -0.433110 2.322550
						CHANNELS 3 Zrotation Yrotation Xrotation
						End Site
						{
							OFFSET 0.000000 0.000000 0.000000
						}
					}
				}
			}
		}
	}
	JOINT RHipJoint
	{
		OFFSET 0.000000 0.000000 0.000000
		CHANNELS 3 Zrotation Yrotation Xrotation
		JOINT RightUpLeg
		{
			OFFSET -1.305520 -1.794630 0.839290
			CHANNELS 3 Zrotation Yrotation Xrotation
			JOINT RightLeg
			{
				OFFSET -2.542530 -6.985550 0.000000
				CHANNELS 3 Zrotation Yrotation Xrotation
				JOINT RightFoot
				{
					OFFSET -2.568260 -7.056230 0.000000
					CHANNELS 3 Zrotation Yrotation Xrotation
					JOINT RightToeBase
					{
						OFFSET -0.164730 -0.452590 2.363150
						CHANNELS 3 Zrotation Yrotation Xrotation
						End Site
						{
							OFFSET 0.000000 0.000000 0.000000
						}
					}
				}
			}
		}
	}
	JOINT LowerBack
	{
		OFFSET 0.000000 0.000000 0.000000
		CHANNELS 3 Zrotation Yrotation Xrotation
		JOINT Spine
		{
			OFFSET 0.028270 2.035590 -0.193380
			CHANNELS 3 Zrotation Yrotation Xrotation
			JOINT Spine1
			{
				OFFSET 0.056720 2.048850 -0.042750
				CHANNELS 3 Zrotation Yrotation Xrotation
				JOINT Neck
				{
					OFFSET 0.000000 0.000000 0.000000
					CHANNELS 3 Zrotation Yrotation Xrotation
					JOINT Neck1
					{
						OFFSET -0.054170 1.746240 0.172020
						CHANNELS 3 Zrotation Yrotation Xrotation
						JOINT Head
						{
							OFFSET 0.104070 1.761360 -0.123970
							CHANNELS 3 Zrotation Yrotation Xrotation
							End Site
							{
								OFFSET 0.000000 0.000000 0.000000
							}
						}
					}
				}
				JOINT LeftShoulder
				{
					OFFSET 0.000000 0.000000 0.000000
					CHANNELS 3 Zrotation Yrotation Xrotation
					JOINT LeftArm
					{
						OFFSET 3.362410 1.200890 -0.311210
						CHANNELS 3 Zrotation Yrotation Xrotation
						JOINT LeftForeArm
						{
							OFFSET 4.983000 -0.000000 -0.000000
							CHANNELS 3 Zrotation Yrotation Xrotation
							JOINT LeftHand
							{
								OFFSET 3.483560 -0.000000 -0.000000
								CHANNELS 3 Zrotation Yrotation Xrotation
								JOINT LeftFingerBase
								{
									OFFSET 0.000000 0.000000 0.000000
									CHANNELS 3 Zrotation Yrotation Xrotation
									JOINT LeftHandIndex1
									{
										OFFSET 0.715260 -0.000000 -0.000000
										CHANNELS 3 Zrotation Yrotation Xrotation
										End Site
										{
											OFFSET 0.000000 0.000000 0.000000
										}
									}
								}
								JOINT LThumb
								{
									OFFSET 0.000000 0.000000 0.000000
									CHANNELS 3 Zrotation Yrotation Xrotation
									End Site
									{
										OFFSET 0.000000 0.000000 0.000000
									}
								}
							}
						}
					}
				}
				JOINT RightShoulder
				{
					OFFSET 0.000000 0.000000 0.000000
					CHANNELS 3 Zrotation Yrotation Xrotation
					JOINT RightArm
					{
						OFFSET -3.136600 1.374050 -0.404650
						CHANNELS 3 Zrotation Yrotation Xrotation
						JOINT RightForeArm
						{
							OFFSET -5.241900 -0.000000 -0.000000
							CHANNELS 3 Zrotation Yrotation Xrotation
							JOINT RightHand
							{
								OFFSET -3.444170 -0.000000 -0.000000
								CHANNELS 3 Zrotation Yrotation Xrotation
								JOINT RightFingerBase
								{
									OFFSET 0.000000 0.000000 0.000000
									CHANNELS 3 Zrotation Yrotation Xrotation
									JOINT RightHandIndex1
									{
										OFFSET -0.622530 -0.000000 -0.000000
										CHANNELS 3 Zrotation Yrotation Xrotation
										End Site
										{
											OFFSET 0.000000 0.000000 0.000000
										}
									}
								}
								JOINT RThumb
								{
									OFFSET 0.000000 0.000000 0.000000
									CHANNELS 3 Zrotation Yrotation Xrotation
									End Site
									{
										OFFSET 0.000000 0.000000 0.000000
									}
								}
							}
						}
					}
				}
			}
		}
	}
}
MOTION
Frames: 4
Frame Time: 0.008333
-22.140170 17.558308 -1.169355 -172.206136 -37.547653 -179.549297 -6.551082 -3.718077 -0.843679 -1.005547 1.810198 -23.467934 3.184300 12.707809 36.261962 2.909843 -4.293126 7.459829 3.666400 11.702700 34.688200 8.223492 1.777825 2.848183 8.948980 13.427530 5.690650 -0.512423 -9.363008 23.244876 -2.982893 8.072448 6.647980 -0.824200 -5.792500 16.183600 -1.248905 -0.895399 -0.541025 -0.427654 -1.649947 -2.769682 0.704021 -0.285643 1.606043 -3.240661 -0.258476 0.604789 5.268604 -2.709151 -14.519532 0.402800 -2.439100 -4.801000 -8.943160 -5.007563 0.139421 -69.133930 -8.711363 8.333619 6.405475 -16.229168 -2.293527 -1.545505 -3.369205 4.300247 13.848772 42.553472 10.966800 -7.125000 0.000000 0.000000 -41.229000 73.308500 -28.895100 12.812036 4.012677 -1.754101 73.212016 -3.371663 26.273659 -16.834451 25.143760 -6.075411 0.679482 -2.651097 1.250863 -23.100741 30.926699 -13.752200 7.125000 0.000000 0.000000 4.704500 5.886900 5.178900 
-22.222078 17.557642 -1.174350 -172.298371 -37.032861 -179.865003 -6.603175 -3.674384 -0.727559 -1.269544 1.974696 -22.807463 3.166916 12.721330 36.218875 2.843283 -4.061333 6.953680 3.642100 11.668300 34.568500 8.152726 1.790330 2.794940 8.844303 13.263495 5.786342 -0.632413 -9.641308 24.037025 -3.032308 8.443896 6.847098 -0.910200 -6.079200 17.014400 -1.321328 -0.798490 -0.281409 -0.437900 -1.521189 -2.702725 0.774137 -0.235936 1.650335 -3.361205 -0.271693 0.509716 5.470190 -2.708293 -14.590658 0.494900 -2.449200 -4.786800 -8.950495 -5.016721 0.146996 -69.124383 -8.827917 8.217792 6.383551 -16.188080 -2.286701 -1.562212 -3.356902 4.530449 13.870963 42.499685 10.975000 -7.125000 0.000000 0.000000 -41.049000 73.277100 -28.732200 12.838645 4.010079 -1.744100 73.078241 -3.321491 26.526007 -16.686515 24.979365 -5.991033 0.695444 -2.654027 1.100557 -23.094419 30.804935 -13.712700 7.125000 0.000000 0.000000 4.682800 5.766700 5.146100 
-22.309202 17.555755 -1.165249 -173.671237 -36.527373 -178.769423 -6.759007 -3.731910 -0.683738 -2.619906 2.166648 -22.811600 3.105797 12.726179 36.129705 2.624415 -3.442340 6.264254 3.439600 11.374800 33.554700 8.026454 1.850460 2.714751 7.356016 12.950578 5.017332 -0.809400 -9.956319 25.071683 -3.133098 8.963654 6.987213 -0.886500 -6.001900 16.790000 -2.389313 -0.758184 -0.630310 -0.578175 -1.456225 -2.731701 0.975987 -0.220982 1.740114 -3.405608 -0.176719 0.477054 5.524215 -2.580542 -14.593474 0.507400 -2.391100 -4.785700 -8.972694 -5.017038 0.144266 -69.114203 -8.877459 8.013022 6.365830 -16.167421 -2.289960 -1.590143 -3.359306 4.668594 14.187697 42.677190 11.256600 -7.125000 0.000000 0.000000 -41.162400 73.519500 -29.018400 12.835773 3.996696 -1.748469 73.045846 -3.330968 26.608285 -16.574596 24.862756 -5.935951 0.681962 -2.672683 1.276882 -23.035297 30.920203 -13.719200 7.125000 0.000000 0.000000 4.740500 5.887300 5.218900 
-22.363364 17.550983 -1.152707 -173.589535 -36.324343 -178.739584 -6.766871 -3.743371 -0.661304 -2.730865 2.382357 -22.837788 3.090919 12.699317 36.056944 2.586438 -3.318383 6.212136 3.310000 11.180700 32.891700 8.001149 1.913728 2.611322 7.342792 12.784893 4.466135 -0.980624 -10.287997 26.118576 -3.072705 8.814503 7.043729 -0.870900 -5.949900 16.639300 -2.266836 -0.737909 -0.721126 -0.618861 -1.416139 -2.654748 0.812029 -0.213154 2.025762 -3.358389 -0.141823 0.326376 5.605098 -2.528818 -14.782043 0.544800 -2.386600 -4.830700 -8.992445 -5.042233 0.171708 -68.788531 -9.373481 8.177940 6.336592 -16.104871 -2.286587 -1.614981 -3.361397 4.466153 14.460902 42.507986 11.453100 -7.125000 0.000000 0.000000 -40.384100 73.511100 -28.418100 12.838862 4.019766 -1.723082 73.335496 -2.895624 26.162589 -16.478647 24.724513 -5.891121 0.651584 -2.699999 1.692912 -23.025561 31.029589 -13.754200 7.125000 0.000000 0.000000 4.774200 6.020800 5.266100 
